<?xml version="1.0" encoding="utf-8"?>
<!-- Generator: Adobe Illustrator 18.0.0, SVG Export Plug-In . SVG Version: 6.00 Build 0)  -->
<!DOCTYPE svg PUBLIC "-//W3C//DTD SVG 1.1//EN" "http://www.w3.org/Graphics/SVG/1.1/DTD/svg11.dtd">
<svg version="1.1" id="Vrstva_1" xmlns="http://www.w3.org/2000/svg" xmlns:xlink="http://www.w3.org/1999/xlink" x="0px" y="0px"
	 viewBox="0 0 100 100" enable-background="new 0 0 100 100" xml:space="preserve">
<polygon fill="#272B2D" points="0,92.2 51.1,39.7 51.1,7.8 "/>
<g>
	<polygon fill="#00BFF2" points="92.9,81.2 95.8,81.2 95.8,79.1 94.6,77.1 91.8,77.1 91.8,79.9 	"/>
	<rect x="77.1" y="57.6" fill="#00BFF2" width="4.1" height="4"/>
	<polygon fill="#00BFF2" points="77.1,56.8 81.2,56.8 81.2,55 79.8,52.7 77.1,52.7 	"/>
	<polygon fill="#00BFF2" points="100,86.1 97.6,82 96.6,82 96.6,84.9 97.7,86.1 	"/>
	<polygon fill="#00BFF2" points="73.9,61.6 76.3,61.6 76.3,57.6 72.2,57.6 72.2,59.9 	"/>
	<rect x="72.2" y="52.8" fill="#00BFF2" width="4.1" height="4"/>
	<rect x="72.2" y="47.8" fill="#00BFF2" width="4.1" height="4"/>
	<polygon fill="#00BFF2" points="72.2,47 76.3,47 76.3,46.9 73.8,42.9 72.2,42.9 	"/>
	<polygon fill="#00BFF2" points="83.4,71.4 86.1,71.4 86.1,67.3 81.9,67.3 81.9,69.9 	"/>
	<polygon fill="#00BFF2" points="78.7,66.5 81.2,66.5 81.2,62.5 77.1,62.5 77.1,64.9 	"/>
	<rect x="62.4" y="38.1" fill="#00BFF2" width="4.1" height="4"/>
	<polygon fill="#00BFF2" points="86.8,71.4 90.9,71.4 90.9,71.1 88.7,67.3 86.8,67.3 	"/>
	<rect x="62.4" y="42.9" fill="#00BFF2" width="4.1" height="4"/>
	<polygon fill="#00BFF2" points="88.2,76.3 90.9,76.3 90.9,72.3 86.8,72.3 86.8,74.9 	"/>
	<polygon fill="#00BFF2" points="81.9,66.5 86.1,66.5 86.1,63 85.7,62.5 81.9,62.5 	"/>
	<polygon fill="#00BFF2" points="57.5,22.6 61.5,22.6 59,18.5 57.5,18.5 	"/>
	<polygon fill="#00BFF2" points="54.9,42.1 56.7,42.1 56.7,38 52.7,38 52.7,39.8 	"/>
	<rect x="57.5" y="33.2" fill="#00BFF2" width="4" height="4.1"/>
	<rect x="57.5" y="28.3" fill="#00BFF2" width="4" height="4.1"/>
	<rect x="57.5" y="23.4" fill="#00BFF2" width="4" height="4.1"/>
	<rect x="52.7" y="18.5" fill="#00BFF2" width="4" height="4.1"/>
	<rect x="52.7" y="33.2" fill="#00BFF2" width="4" height="4.1"/>
	<rect x="57.5" y="38.1" fill="#00BFF2" width="4" height="4"/>
	<polygon fill="#00BFF2" points="52.7,17.7 56.7,17.7 56.7,14.6 56.1,13.6 52.7,13.6 	"/>
	<rect x="52.7" y="28.3" fill="#00BFF2" width="4" height="4.1"/>
	<rect x="52.7" y="23.4" fill="#00BFF2" width="4" height="4.1"/>
	<polygon fill="#00BFF2" points="67.3,32.3 67.4,32.3 67.3,32.1 	"/>
	<polygon fill="#00BFF2" points="67.3,42.1 71.4,42.1 71.4,38.8 70.9,38 67.3,38 	"/>
	<polygon fill="#00BFF2" points="69.2,56.8 71.4,56.8 71.4,52.7 67.3,52.7 67.3,54.9 	"/>
	<rect x="67.3" y="47.8" fill="#00BFF2" width="4.1" height="4"/>
	<rect x="67.3" y="42.9" fill="#00BFF2" width="4.1" height="4"/>
	<polygon fill="#00BFF2" points="59.7,47 61.6,47 61.6,42.9 57.5,42.9 57.5,44.8 	"/>
	<polygon fill="#00BFF2" points="62.4,32.3 66.5,32.3 66.5,30.8 65,28.3 62.4,28.3 	"/>
	<polygon fill="#00BFF2" points="64.4,51.9 66.5,51.9 66.5,47.8 62.4,47.8 62.4,49.8 	"/>
	<rect x="62.4" y="33.2" fill="#00BFF2" width="4.1" height="4.1"/>
</g>
</svg>
