<?xml version="1.0" encoding="utf-8"?>
<!-- Generator: Adobe Illustrator 18.0.0, SVG Export Plug-In . SVG Version: 6.00 Build 0)  -->
<!DOCTYPE svg PUBLIC "-//W3C//DTD SVG 1.1//EN" "http://www.w3.org/Graphics/SVG/1.1/DTD/svg11.dtd">
<svg version="1.1" id="Vrstva_1" xmlns="http://www.w3.org/2000/svg" xmlns:xlink="http://www.w3.org/1999/xlink" x="0px" y="0px"
	 viewBox="0 0 100 100" enable-background="new 0 0 100 100" xml:space="preserve">
<rect x="50.3" y="3.9" fill="#AAAAAA" width="49.7" height="16"/>
<rect x="50.3" y="80.6" fill="#AAAAAA" width="49.7" height="16"/>
<rect x="63.7" y="32.9" fill="#AAAAAA" width="36.4" height="7.4"/>
<rect x="63.7" y="60.1" fill="#AAAAAA" width="36.4" height="7.4"/>
<rect x="63.7" y="46.5" fill="#AAAAAA" width="36.4" height="7.4"/>
<path fill="#AAAAAA" d="M42.5,96.5V68.9l-28,28C14.5,96.9,42.5,95.8,42.5,96.5z"/>
<path fill="#AAAAAA" d="M33.7,86.9h-3.4C19.6,86.9,0,58.5,0,38.6C0,17.2,14.8,4.5,39.5,4.5h3.6v7.1h-3.6c-20.9,0-32.4,9.6-32.4,27
	c0,18.4,18.6,40.9,23.2,41.3l3.4,0.3V86.9z"/>
</svg>
