<?xml version="1.0" encoding="utf-8"?>
<!-- Generator: Adobe Illustrator 18.0.0, SVG Export Plug-In . SVG Version: 6.00 Build 0)  -->
<!DOCTYPE svg PUBLIC "-//W3C//DTD SVG 1.1//EN" "http://www.w3.org/Graphics/SVG/1.1/DTD/svg11.dtd">
<svg version="1.1" id="Vrstva_1" xmlns="http://www.w3.org/2000/svg" xmlns:xlink="http://www.w3.org/1999/xlink" x="0px" y="0px"
	 viewBox="527.7 0 864.6 1080" enable-background="new 527.7 0 864.6 1080" xml:space="preserve">
<linearGradient id="SVGID_1_" gradientUnits="userSpaceOnUse" x1="36.9124" y1="1071.0332" x2="211.9529" y2="767.8544" gradientTransform="matrix(2.7 0 0 -2.7 420 2916)">
	<stop  offset="0.5551" style="stop-color:#AEADAE"/>
	<stop  offset="0.5727" style="stop-color:#7B7B7B"/>
</linearGradient>
<path fill="url(#SVGID_1_)" d="M594.4,1072.4l777.1-493.8c27.8-17.5,27.8-59.4,0-77.2L594.4,7.6c-29.2-18.6-66.7,3.2-66.7,38.6
	v987.7C527.7,1069.2,565.3,1091.1,594.4,1072.4z"/>
<rect x="847.9" y="764.9" fill="#C4C4C4" width="79" height="12.5"/>
<polygon fill="#C4C4C4" points="865.6,710.3 865.6,643.8 853.1,643.8 853.1,710.3 853.1,722.8 865.6,722.8 932.1,722.8 932.1,710.3 
	"/>
<polygon fill="#C4C4C4" points="932.1,819.2 865.6,819.2 853.1,819.2 853.1,831.6 853.1,898.2 865.6,898.2 865.6,831.6 932.1,831.6 
	"/>
<path fill="#595959" d="M1016.1,656.9v288.5c-68.6,0-95.8-113.1-95.8-196.7c0-61.3,11.8-91.8,11.8-91.8H1016.1z"/>
<rect x="1105.4" y="764.9" fill="#C4C4C4" width="79" height="12.5"/>
<polygon fill="#C4C4C4" points="1166.7,710.3 1166.7,643.8 1179.1,643.8 1179.1,710.3 1179.1,722.8 1166.7,722.8 1100.1,722.8 
	1100.1,710.3 "/>
<polygon fill="#C4C4C4" points="1100.1,819.2 1166.7,819.2 1179.1,819.2 1179.1,831.6 1179.1,898.2 1166.7,898.2 1166.7,831.6 
	1100.1,831.6 "/>
<path fill="#C4C4C4" d="M1037.2,566c0.1-0.3,0.2-0.7,0.2-1.1c0-23.9,35.2-37.5,44.8-37.5c1.4,0,2.6-1.2,2.6-2.6s-1.2-2.6-2.6-2.6
	c-11.9,0-49.1,15.3-50,41.8c-5.1-1.8-10.5-2.8-16.1-2.8c-5.6,0-11,1-16.1,2.8c-0.9-26.5-38.1-41.8-50-41.8c-1.4,0-2.6,1.2-2.6,2.6
	s1.2,2.6,2.6,2.6c9.6,0,44.8,13.7,44.8,37.5c0,0.4,0.1,0.7,0.2,1.1c-41.2,19.5-62.9,90.8-62.9,90.8h84h84
	C1100.1,656.9,1078.4,585.6,1037.2,566z M986,632.3c-6.2,0-11.3-5.1-11.3-11.3c0-6.2,5.1-11.3,11.3-11.3s11.3,5.1,11.3,11.3
	C997.3,627.2,992.2,632.3,986,632.3z M1046.3,632.3c-6.2,0-11.3-5.1-11.3-11.3c0-6.2,5.1-11.3,11.3-11.3s11.3,5.1,11.3,11.3
	C1057.6,627.2,1052.5,632.3,1046.3,632.3z"/>
<path fill="#595959" d="M1016.1,656.9v288.5c68.6,0,95.8-113.1,95.8-196.7c0-61.3-11.8-91.8-11.8-91.8H1016.1z"/>
</svg>
