<?xml version="1.0" encoding="utf-8"?>
<!-- Generator: Adobe Illustrator 18.0.0, SVG Export Plug-In . SVG Version: 6.00 Build 0)  -->
<!DOCTYPE svg PUBLIC "-//W3C//DTD SVG 1.1//EN" "http://www.w3.org/Graphics/SVG/1.1/DTD/svg11.dtd">
<svg version="1.1" xmlns="http://www.w3.org/2000/svg" xmlns:xlink="http://www.w3.org/1999/xlink" x="0px" y="0px"
	 viewBox="1052.3 0 867.7 1080" enable-background="new 1052.3 0 867.7 1080" xml:space="preserve">
<g id="Vrstva_1">
	
		<linearGradient id="SVGID_1_" gradientUnits="userSpaceOnUse" x1="36.3015" y1="8.3242" x2="211.9495" y2="312.5552" gradientTransform="matrix(2.7 0 0 2.7 946.1999 -5.149841e-005)">
		<stop  offset="0.5551" style="stop-color:#25B5E4"/>
		<stop  offset="0.6256" style="stop-color:#22A0C1"/>
	</linearGradient>
	<path fill="url(#SVGID_1_)" d="M1119.3,1074.3l779.8-495.4c27.8-17.8,27.8-59.7,0-77.5L1119.3,5.7c-29.2-18.6-67,3.2-67,38.9v991.2
		C1052.3,1071.1,1090.1,1093,1119.3,1074.3z"/>
</g>
<g id="bug">
	<rect x="1372.4" y="764.9" fill="#C4C4C4" width="79" height="12.5"/>
	<polygon fill="#C4C4C4" points="1390.2,710.3 1390.2,643.8 1377.7,643.8 1377.7,710.3 1377.7,722.8 1390.2,722.8 1456.7,722.8 
		1456.7,710.3 	"/>
	<polygon fill="#C4C4C4" points="1456.7,819.2 1390.2,819.2 1377.7,819.2 1377.7,831.7 1377.7,898.2 1390.2,898.2 1390.2,831.7 
		1456.7,831.7 	"/>
	<path fill="#006BAD" d="M1540.7,656.9v288.5c-68.6,0-95.8-113.1-95.8-196.7c0-61.3,11.8-91.8,11.8-91.8H1540.7z"/>
	<rect x="1629.9" y="764.9" fill="#C4C4C4" width="79" height="12.5"/>
	<polygon fill="#C4C4C4" points="1691.3,710.3 1691.3,643.8 1703.7,643.8 1703.7,710.3 1703.7,722.8 1691.3,722.8 1624.7,722.8 
		1624.7,710.3 	"/>
	<polygon fill="#C4C4C4" points="1624.7,819.2 1691.3,819.2 1703.7,819.2 1703.7,831.7 1703.7,898.2 1691.3,898.2 1691.3,831.7 
		1624.7,831.7 	"/>
	<path fill="#C4C4C4" d="M1561.8,566.1c0.1-0.3,0.2-0.7,0.2-1.1c0-23.9,35.2-37.5,44.8-37.5c1.4,0,2.6-1.2,2.6-2.6s-1.2-2.6-2.6-2.6
		c-11.9,0-49.1,15.3-50,41.8c-5.1-1.8-10.5-2.8-16.1-2.8s-11,1-16.1,2.8c-0.9-26.5-38.1-41.8-50-41.8c-1.4,0-2.6,1.2-2.6,2.6
		s1.2,2.6,2.6,2.6c9.6,0,44.8,13.7,44.8,37.5c0,0.4,0.1,0.7,0.2,1.1c-41.2,19.5-62.9,90.8-62.9,90.8h84h84
		C1624.7,656.9,1603,585.6,1561.8,566.1z M1510.6,632.3c-6.2,0-11.3-5.1-11.3-11.3c0-6.2,5.1-11.3,11.3-11.3
		c6.2,0,11.3,5.1,11.3,11.3C1521.9,627.2,1516.8,632.3,1510.6,632.3z M1570.9,632.3c-6.2,0-11.3-5.1-11.3-11.3
		c0-6.2,5.1-11.3,11.3-11.3s11.3,5.1,11.3,11.3C1582.2,627.2,1577.1,632.3,1570.9,632.3z"/>
	<path fill="#006BAD" d="M1540.7,656.9v288.5c68.6,0,95.8-113.1,95.8-196.7c0-61.3-11.8-91.8-11.8-91.8H1540.7z"/>
</g>
</svg>
