<?xml version="1.0" encoding="utf-8"?>
<!-- Generator: Adobe Illustrator 18.0.0, SVG Export Plug-In . SVG Version: 6.00 Build 0)  -->
<!DOCTYPE svg PUBLIC "-//W3C//DTD SVG 1.1//EN" "http://www.w3.org/Graphics/SVG/1.1/DTD/svg11.dtd">
<svg version="1.1" id="Vrstva_1" xmlns="http://www.w3.org/2000/svg" xmlns:xlink="http://www.w3.org/1999/xlink" x="0px" y="0px"
	 viewBox="0 0 100 100" enable-background="new 0 0 100 100" xml:space="preserve">
<g id="Vrstva_1_1_">
	
		<linearGradient id="SVGID_1_" gradientUnits="userSpaceOnUse" x1="-4172.6582" y1="8.7229" x2="-3997.3525" y2="312.3604" gradientTransform="matrix(0.25 0 0 0.25 1052.3047 0)">
		<stop  offset="0.5551" style="stop-color:#25B5E4"/>
		<stop  offset="0.6256" style="stop-color:#22A0C1"/>
	</linearGradient>
	<path fill="url(#SVGID_1_)" d="M16.1,99.4l72-45.8c2.6-1.6,2.6-5.5,0-7.2l-72-45.8c-2.7-1.7-6.2,0.3-6.2,3.6v91.6
		C9.9,99.1,13.4,101.1,16.1,99.4z"/>
</g>
<g id="bug">
	<rect x="17.9" y="57.5" fill="#C4C4C4" width="13.8" height="2.2"/>
	<polygon fill="#C4C4C4" points="20.9,47.9 20.9,36.3 18.8,36.3 18.8,47.9 18.8,50.1 20.9,50.1 32.6,50.1 32.6,47.9 	"/>
	<polygon fill="#C4C4C4" points="32.6,66.9 20.9,66.9 18.8,66.9 18.8,69.1 18.8,80.6 20.9,80.6 20.9,69.1 32.6,69.1 	"/>
	<path fill="#565656" d="M45.3,44.1v43.4c-10.3,0-14.4-17-14.4-29.6c0-9.2,1.8-13.8,1.8-13.8S45.3,44.1,45.3,44.1z"/>
	<rect x="58.8" y="57.5" fill="#C4C4C4" width="13.8" height="2.2"/>
	<polygon fill="#C4C4C4" points="69.6,47.9 69.6,36.3 71.6,36.3 71.6,47.9 71.6,50.1 69.6,50.1 58,50.1 58,47.9 	"/>
	<polygon fill="#C4C4C4" points="58,66.9 69.6,66.9 71.6,66.9 71.6,69.1 71.6,80.6 69.6,80.6 69.6,69.1 58,69.1 	"/>
	<path fill="#C4C4C4" d="M48.5,30.4c0,0,0-0.1,0-0.2c0-3.6,5.3-5.6,6.7-5.6c0.2,0,0.4-0.2,0.4-0.4c0-0.2-0.2-0.4-0.4-0.4
		c-1.8,0-7.4,2.3-7.5,6.3c-0.8-0.3-1.6-0.4-2.4-0.4c-0.8,0-1.7,0.2-2.4,0.4c-0.1-4-5.7-6.3-7.5-6.3c-0.2,0-0.4,0.2-0.4,0.4
		c0,0.2,0.2,0.4,0.4,0.4c1.4,0,6.7,2.1,6.7,5.6c0,0.1,0,0.1,0,0.2c-6.2,2.9-9.5,13.7-9.5,13.7h12.6H58C58,44.1,54.7,33.4,48.5,30.4z
		 M40.8,40.4c-0.9,0-1.7-0.8-1.7-1.7s0.8-1.7,1.7-1.7s1.7,0.8,1.7,1.7C42.5,39.6,41.7,40.4,40.8,40.4z M49.9,40.4
		c-0.9,0-1.7-0.8-1.7-1.7S49,37,49.9,37s1.7,0.8,1.7,1.7C51.6,39.6,50.8,40.4,49.9,40.4z"/>
	<path fill="#565656" d="M45.3,44.1v43.4c10.3,0,14.4-17,14.4-29.6c0-9.2-1.8-13.8-1.8-13.8S45.3,44.1,45.3,44.1z"/>
</g>
</svg>
